<svg height="504" viewBox="0 0 1271 504" width="1271" xmlns="http://www.w3.org/2000/svg" xmlns:xlink="http://www.w3.org/1999/xlink"><linearGradient id="a" x1="0%" x2="99.999919%" y1="30.763647%" y2="30.763647%"><stop offset="0" stop-color="#0f1012"/><stop offset=".0520742" stop-color="#32353a"/><stop offset=".948656" stop-color="#32353a"/><stop offset="1" stop-color="#0f1012"/></linearGradient><linearGradient id="b"><stop offset="0" stop-color="#4c4e54" stop-opacity="0"/><stop offset="1"/></linearGradient><linearGradient id="c" x1="98.977955%" x2="52.472856%" xlink:href="#b" y1="27.639359%" y2="79.095644%"/><linearGradient id="d" x1="82.113529%" x2="48.725114%" xlink:href="#b" y1="37.636606%" y2="96.443746%"/><linearGradient id="e" x1="1.021867%" x2="47.52661%" xlink:href="#b" y1="27.639359%" y2="79.095644%"/><linearGradient id="f" x1="17.88647%" x2="51.2743%" xlink:href="#b" y1="37.636606%" y2="96.443746%"/><linearGradient id="g"><stop offset="0" stop-color="#141517"/><stop offset="1" stop-color="#101113"/></linearGradient><linearGradient id="h" x1="50%" x2="50%" xlink:href="#g" y1="0%" y2="100%"/><linearGradient id="i" x1="50.000033%" x2="50.000033%" xlink:href="#g" y1="0%" y2="100%"/><linearGradient id="j"><stop offset="0" stop-color="#6e7079"/><stop offset=".314961" stop-color="#4d4f54"/><stop offset="1" stop-color="#4d4f54"/></linearGradient><linearGradient id="k" x1="49.991825%" x2="49.991825%" xlink:href="#j" y1="-2.813071%" y2="102.810643%"/><linearGradient id="l" x1="49.99906%" x2="49.99906%" xlink:href="#j" y1="-2.813071%" y2="102.810643%"/><radialGradient id="m" cx="50%" cy="50%" r="48.534797%"><stop offset="0" stop-color="#3f4247"/><stop offset="1" stop-color="#2e3137"/></radialGradient><linearGradient id="n"><stop offset="0" stop-color="#6e7079"/><stop offset="1" stop-color="#2d2e32"/></linearGradient><linearGradient id="o" x1="49.999212%" x2="49.999212%" xlink:href="#n" y1="5.083492%" y2="94.916508%"/><linearGradient id="p" x1="49.994257%" x2="49.994257%" xlink:href="#n" y1="-6.380165%" y2="106.380952%"/><linearGradient id="q" x1="49.999839%" x2="49.999839%" y1="-.989039%" y2="100.989119%"><stop offset="0" stop-color="#5b5c5f"/><stop offset=".172152" stop-color="#414347"/><stop offset=".4" stop-color="#43454a"/><stop offset=".643038" stop-color="#4c4f56"/><stop offset="1" stop-color="#25262b"/></linearGradient><linearGradient id="r"><stop offset="0" stop-color="#141618"/><stop offset="1" stop-color="#25272c" stop-opacity="0"/></linearGradient><linearGradient id="s" x1="61.979005%" x2="12.828306%" xlink:href="#r" y1="36.772394%" y2="78.34427%"/><linearGradient id="t" x1="61.952736%" x2="12.828306%" xlink:href="#r" y1="36.772394%" y2="78.34427%"/><linearGradient id="u" x1="61.979005%" x2="12.854576%" xlink:href="#r" y1="36.772656%" y2="78.34427%"/><linearGradient id="v" x1="61.979005%" x2="12.854576%" xlink:href="#r" y1="36.773182%" y2="78.345058%"/><g fill="none" fill-rule="evenodd" transform="translate(-.000032)"><path d="m.00009344 72.1712v16.3045 207.6423s.71931496 133.553 38.12373896 168.559c45.3168 40.762 121.5641996 38.124 121.5641996 38.124h952.371998s86.32 3.836 123.72-38.363c37.41-42.2 35.01-151.056 35.01-151.056v-227.304-17.1494c0-35.817-29.04-64.85249-64.85-64.85249h-49.76-1059.3121976-28.7726c-37.6079 0-68.09513896 30.48719-68.09513896 68.09509z" fill="url(#a)" fill-rule="nonzero"/><path d="m1116.86003 444.297s-39.33 46.036-88.24 46.036h-394.663998-388.19c-48.913 0-92.072-46.036-92.072-46.036l25.655 34.527c4.316 5.595 11.126 17.264 10.55 23.977l444.057 1.199 447.173998-1.199c-.58-6.713 5.75-18.382 10.07-23.977z" fill="#23252b" fill-rule="nonzero"/><path d="m.00009344 72.1712v16.3045c0-53.7088 42.83923896-70.9724 64.25883896-72.8906h1138.4310976c61.39 0 67.14 46.9953 68.1 70.4929v-17.1494c0-35.817-29.04-64.85249-64.85-64.85249h-49.76-529.656998-529.6551996-28.7726c-37.6079 0-68.09513896 30.48719-68.09513896 68.09509z" fill="#2b2c33" fill-rule="nonzero"/><path d="m.030962 313.382v-136.67h45.2825704c10.7451 0 19.4557 8.71 19.4557 19.455v91.799s-1.1988 22.059 6.2341 35.726c3.8363 7.193 11.9886 19.421 11.9886 19.421l97.3470996 139.547c2.877 3.997 8.632 13.619 8.632 20.141h-30.211s-86.3179996 3.836-123.7223996-38.363c-37.40438-42.2-35.0066704-151.056-35.0066704-151.056z" fill="#3a3c42" fill-opacity=".4" fill-rule="nonzero"/><path d="m.030962 313.382v-136.67h45.2825704c10.7451 0 19.4557 8.71 19.4557 19.455v91.799s-1.1988 22.059 6.2341 35.726c3.8363 7.193 11.9886 19.421 11.9886 19.421l97.3470996 139.547c2.877 3.997 8.632 13.619 8.632 20.141h-30.211s-86.3179996 3.836-123.7223996-38.363c-37.40438-42.2-35.0066704-151.056-35.0066704-151.056z" fill="url(#c)" fill-opacity=".4" fill-rule="nonzero"/><path d="m.030962 313.382v-136.67h45.2825704c10.7451 0 19.4557 8.71 19.4557 19.455v91.799s-1.1988 22.059 6.2341 35.726c3.8363 7.193 11.9886 19.421 11.9886 19.421l97.3470996 139.547c2.877 3.997 8.632 13.619 8.632 20.141h-30.211s-86.3179996 3.836-123.7223996-38.363c-37.40438-42.2-35.0066704-151.056-35.0066704-151.056z" fill="url(#d)" fill-opacity=".4" fill-rule="nonzero"/><path d="m1270.79003 313.382v-136.67h-45.28c-10.75 0-19.46 8.71-19.46 19.455v91.799s1.2 22.059-6.23 35.726c-3.84 7.193-11.99 19.421-11.99 19.421l-97.35 139.547c-2.88 3.997-8.63 13.619-8.63 20.141h30.21s86.32 3.836 123.72-38.363c37.41-42.2 35.01-151.056 35.01-151.056z" fill="#3a3c42" fill-opacity=".4" fill-rule="nonzero"/><path d="m1270.79003 313.382v-136.67h-45.28c-10.75 0-19.46 8.71-19.46 19.455v91.799s1.2 22.059-6.23 35.726c-3.84 7.193-11.99 19.421-11.99 19.421l-97.35 139.547c-2.88 3.997-8.63 13.619-8.63 20.141h30.21s86.32 3.836 123.72-38.363c37.41-42.2 35.01-151.056 35.01-151.056z" fill="url(#e)" fill-opacity=".4" fill-rule="nonzero"/><path d="m1270.79003 313.382v-136.67h-45.28c-10.75 0-19.46 8.71-19.46 19.455v91.799s1.2 22.059-6.23 35.726c-3.84 7.193-11.99 19.421-11.99 19.421l-97.35 139.547c-2.88 3.997-8.63 13.619-8.63 20.141h30.21s86.32 3.836 123.72-38.363c37.41-42.2 35.01-151.056 35.01-151.056z" fill="url(#f)" fill-opacity=".4" fill-rule="nonzero"/><path d="m1270.79003 176.712h-45.28c-10.75 0-19.46 8.71-19.46 19.455v91.799s1.2 22.059-6.23 35.726c-3.84 7.193-11.99 19.421-11.99 19.421l-97.35 139.547c-2.88 3.997-8.63 13.619-8.63 20.141" stroke="url(#h)" stroke-width="3.24263"/><path d="m.00010655 176.712h45.28252585c10.7451 0 19.4558 8.71 19.4558 19.455v91.799s-1.1989 22.059 6.234 35.726c3.8364 7.193 11.9886 19.421 11.9886 19.421l97.3469996 139.547c2.878 3.997 8.632 13.619 8.632 20.141" stroke="url(#i)" stroke-width="3.24263"/><g fill-rule="nonzero" transform="translate(22.258282 24.3054)"><g stroke="#000"><rect fill="#35383e" height="138.223" rx="14.5918" stroke-width="3.24263" width="136.544" x="88.69875" y="152.8286"/><rect fill="#35383e" height="138.223" rx="14.5918" stroke-width="3.24263" width="136.544" x="1003.67175" y="152.8286"/><rect fill="url(#k)" height="28.8297" rx="12.1598" stroke-width="1.62131" width="69.1113" x="1002.86175" y="316.7416"/><rect fill="url(#l)" height="28.8297" rx="12.1598" stroke-width="1.62131" width="69.1113" x="156.94275" y="316.7416"/></g><circle cx="166.44175" cy="75.1998" fill="#25282c" r="57.5452"/><circle cx="166.44175" cy="75.1998" fill="#555a61" r="41.7203"/><circle cx="166.44175" cy="75.1998" fill="#15181c" r="41.7203"/><circle cx="166.44175" cy="75.1998" fill="#3d444d" r="35.0067"/><circle cx="166.44175" cy="75.1998" fill="url(#m)" r="27.6651" stroke="#000" stroke-width="1.62131"/><circle cx="1060.31175" cy="75.1998" fill="#25282c" r="57.5452"/><circle cx="1060.31175" cy="75.1998" fill="#555a61" r="41.7203"/><circle cx="1060.31175" cy="75.1998" fill="#15181c" r="41.7203"/><circle cx="1060.31175" cy="75.1998" fill="#3d444d" r="35.0067"/><circle cx="1060.31175" cy="75.1998" fill="url(#m)" r="27.6651" stroke="#000" stroke-width="1.62131"/><rect fill="url(#o)" height="15.9477" rx="7.97383" stroke="#000" stroke-width="1.62131" width="38.0666" x="98.97475"/><rect fill="url(#p)" height="12.705" rx="6.3525" stroke="#000" stroke-width="1.62131" width="34.824" x="1092.29175" y="1.6213"/><path d="m30.41485 40.8454.0136-22.3954c.0019-2.9979 2.0583-5.6039 4.9736-6.3027l3.4758-.8331c4.9687-1.191 10.1484-1.191 15.117 0l3.4741.8327c2.9161.699 4.9727 3.3062 4.9735 6.3049l.0059 22.3936 22.3933996.0058c2.999.0008 5.606 2.0574 6.305 4.9736l.833 3.474c1.191 4.9686 1.191 10.1484 0 15.117l-.835 3.483c-.698 2.912-3.299 4.9675-6.294 4.9735l-22.4023996.0449v22.3434c0 3-2.0572 5.608-4.9742 6.307l-3.4808.834c-4.9677 1.19-10.1462 1.19-15.1138-.001l-3.4775-.833c-2.9153-.699-4.9717-3.305-4.9736-6.303l-.0136-22.3858-22.3858-.0136c-2.9979-.0019-5.6038-2.0582-6.3026-4.9736l-.8332-3.4758c-1.191-4.9686-1.191-10.1484 0-15.117l.8327-3.474c.699-2.9162 3.3062-4.9728 6.3049-4.9736z" fill="url(#q)" stroke="#000" stroke-width="3.24263"/></g><path d="m54.5796324 67.8666.8101-.0002.0004-.81.0121-22.9584c.0014-2.6233 1.8008-4.9037 4.3518-5.5152l1.5711-.3766c4.8444-1.1612 9.8946-1.1612 14.739 0l1.5695.3762c2.5517.6116 4.3513 2.893 4.3519 5.517l.0052 22.9567.0002.8103.8103.0002 22.9567996.0052c2.624.0006 4.905 1.8002 5.517 4.3519l.376 1.5695c1.161 4.8444 1.161 9.8946 0 14.739l-.378 1.5772c-.611 2.5486-2.888 4.3473-5.508 4.3519l-22.9650996.0397-.8092.0014v.8093 22.9123c0 2.625-1.8 4.907-4.3524 5.519l-1.5756.377c-4.8435 1.161-9.8926 1.161-14.7359 0l-1.5728-.377c-2.551-.612-4.3504-2.892-4.3518-5.516l-.0121-22.9496-.0004-.8098-.8098-.0004-22.9499-.0121c-2.6234-.0014-4.9038-1.8008-5.5153-4.3518l-.3766-1.5711c-1.1612-4.8444-1.1612-9.8946 0-14.739l.3762-1.5695c.6117-2.5517 2.893-4.3513 5.517-4.3519z" stroke="#5d6269" stroke-width="1.62131"/><g fill-rule="nonzero"><circle cx="1166.01003" cy="81.522398" fill="url(#s)" r="19.0333" stroke="#000" stroke-width="1.62131" transform="matrix(0 1 -1 0 1247.53243 -1084.487634)"/><ellipse cx="1156.87004" cy="72.650794" fill="#81888e" rx="5.90368" ry="3.54697" transform="matrix(-.70710678 .70710678 -.70710678 -.70710678 2026.272556 -694.007986)"/><circle cx="1242.74003" cy="81.522398" fill="url(#t)" r="19.0333" stroke="#000" stroke-width="1.62131" transform="matrix(0 1 -1 0 1324.26243 -1161.217634)"/><ellipse cx="1233.59004" cy="72.650793" fill="#81888e" rx="5.90368" ry="3.54697" transform="matrix(-.70710678 .70710678 -.70710678 -.70710678 2157.241786 -748.257219)"/><circle cx="1204.37003" cy="43.158898" fill="url(#u)" r="19.0333" stroke="#000" stroke-width="1.62131" transform="matrix(0 1 -1 0 1247.52893 -1161.211134)"/><ellipse cx="1195.23004" cy="34.287395" fill="#81888e" rx="5.90368" ry="3.54697" transform="matrix(-.70710678 .70710678 -.70710678 -.70710678 2064.630152 -786.62302)"/><circle cx="1204.37003" cy="119.885998" fill="url(#v)" r="19.0333" stroke="#000" stroke-width="1.62131" transform="matrix(0 1 -1 0 1324.25603 -1084.484034)"/><ellipse cx="1195.23004" cy="111.013995" fill="#81888e" rx="5.90368" ry="3.54697" transform="matrix(-.70710678 .70710678 -.70710678 -.70710678 2118.884053 -655.642522)"/><g fill="#000" transform="translate(176.112032 395.383)"><rect height="6.35395" rx="3.17697" width="15.4653" x="57.545"/><rect height="6.35395" rx="3.17697" width="15.4653" x="57.545" y="27.694"/><rect height="6.35395" rx="3.17697" width="25.176" x="47.835" y="13.847"/><rect height="6.35395" rx="3.17697" width="15.4653" x="38.364" y="27.694"/><rect height="6.35395" rx="3.17697" width="15.4653" x="9.232" y="13.847"/><rect height="6.35395" rx="3.17697" width="15.4653" x="28.533" y="13.847"/><rect height="6.35395" rx="3.17697" width="15.4653" x="19.182" y="27.694"/><rect height="6.35395" rx="3.17697" width="15.4653" x="38.364"/><rect height="6.35395" rx="3.17697" width="15.4653"/><rect height="6.35395" rx="3.17697" width="15.4653" x="19.182"/><rect height="6.35395" rx="3.17697" transform="matrix(-1 0 0 1 1711.1307 0)" width="15.4653" x="847.8327"/><rect height="6.35395" rx="3.17697" transform="matrix(-1 0 0 1 1711.1307 0)" width="15.4653" x="847.8327" y="27.694"/><rect height="6.35395" rx="3.17697" transform="matrix(-1 0 0 1 1720.84 0)" width="25.176" x="847.832" y="13.847"/><rect height="6.35395" rx="3.17697" transform="matrix(-1 0 0 1 1749.4907 0)" width="15.4653" x="867.0127" y="27.694"/><rect height="6.35395" rx="3.17697" transform="matrix(-1 0 0 1 1807.7507 0)" width="15.4653" x="896.1427" y="13.847"/><rect height="6.35395" rx="3.17697" transform="matrix(-1 0 0 1 1769.1507 0)" width="15.4653" x="876.8427" y="13.847"/><rect height="6.35395" rx="3.17697" transform="matrix(-1 0 0 1 1787.8507 0)" width="15.4653" x="886.1927" y="27.694"/><rect height="6.35395" rx="3.17697" transform="matrix(-1 0 0 1 1749.4907 0)" width="15.4653" x="867.0127"/><rect height="6.35395" rx="3.17697" transform="matrix(-1 0 0 1 1826.2307 0)" width="15.4653" x="905.3827"/><rect height="6.35395" rx="3.17697" transform="matrix(-1 0 0 1 1787.8507 0)" width="15.4653" x="886.1927"/></g><rect fill="#18191a" height="452.095" rx="4.86394" stroke="#000" stroke-width="3.24263" width="750.371" x="262.128032" y="26.432"/><path d="m263.749032 31.2959c0-1.7908 1.452-3.2426 3.242-3.2426h620.419c3.388 0 4.506 4.5418 1.505 6.1147l-620.418 325.159c-2.159 1.132-4.748-.434-4.748-2.872v-135.625z" fill="#191b1c"/><path d="m272.141032 4.07612c0-2.25118 1.825-4.07612 4.076-4.07612h15.106c2.251 0 4.076 1.82494 4.076 4.07612z" fill="#000"/><path d="m319.975032 4.07612c0-2.25118 1.825-4.07612 4.076-4.07612h15.106c2.251 0 4.076 1.82494 4.076 4.07612z" fill="#000"/><path d="m625.984032 15.777h-559.3274996c-12.1384.1798-26.6146 5.6346-35.3063 11.7488 6.7136-4.6036 21.8791-10.4061 35.3063-10.4061h559.3274996 584.025998c13.42 0 28.59 5.8025 35.3 10.4061-8.69-6.1142-23.16-11.569-35.3-11.7488z" fill="#87919e"/><circle cx="429.191032" cy="252.48" fill="#66c0f4" r="32.6089"/><path d="m429.191032 318.657c8.691 0 17.296-1.712 25.325-5.038s15.324-8.2 21.469-14.345c6.146-6.145 11.02-13.441 14.346-21.47s5.037-16.634 5.037-25.324c0-8.691-1.711-17.296-5.037-25.325s-8.2-15.325-14.346-21.47c-6.145-6.145-13.44-11.019-21.469-14.345s-16.634-5.037-25.325-5.037v26.47c5.215 0 10.378 1.027 15.195 3.023 4.818 1.995 9.195 4.92 12.882 8.607s6.612 8.064 8.607 12.882c1.995 4.817 3.022 9.98 3.022 15.195 0 5.214-1.027 10.377-3.022 15.194-1.995 4.818-4.92 9.195-8.607 12.882s-8.064 6.612-12.882 8.607c-4.817 1.996-9.98 3.023-15.195 3.023z" fill="#fff"/><text fill="#fff" font-family="HelveticaNeue-Bold, Helvetica Neue" font-size="21" font-weight="bold" letter-spacing="3.8" transform="translate(524 270)"><tspan x="0" y="20">OPTIMIZATION GUIDE</tspan></text><path d="m542.387032 240.559h5.344c-.105-5.179-4.521-8.847-11.047-8.847-6.437 0-11.272 3.623-11.257 9.042 0 4.401 3.128 6.931 8.173 8.233l3.488.898c3.308.838 5.494 1.871 5.509 4.251-.015 2.62-2.5 4.372-6.123 4.372-3.473 0-6.167-1.557-6.392-4.776h-5.464c.225 6.093 4.761 9.521 11.901 9.521 7.35 0 11.616-3.668 11.631-9.072-.015-5.314-4.401-7.739-9.011-8.832l-2.874-.718c-2.515-.599-5.24-1.662-5.21-4.222.015-2.305 2.081-3.996 5.554-3.996 3.308 0 5.494 1.541 5.778 4.146zm10.843-3.772h9.475v26.002h5.509v-26.002h9.476v-4.656h-24.46zm30.651 26.002h20.059v-4.656h-14.506v-8.368h13.353v-4.655h-13.353v-8.323h14.386v-4.656h-19.939zm31.017 0 2.53-7.56h11.527l2.545 7.56h5.927l-10.807-30.658h-6.857l-10.793 30.658zm4.027-12.021 4.147-12.35h.239l4.147 12.35zm24.016-18.637v30.658h5.329v-21.107h.284l8.473 21.017h3.982l8.473-20.972h.284v21.062h5.329v-30.658h-6.796l-9.101 22.215h-.359l-9.102-22.215z" fill="#fff"/><path d="m702.128032 262.789c9.341 0 15.269-5.749 15.269-15.329s-5.928-15.329-15.389-15.329h-11.676v30.658zm-3.473-7.066v-16.526h2.934c4.79 0 7.425 1.856 7.425 8.263s-2.635 8.263-7.186 8.263zm24.068 7.066h22.035v-6.707h-13.712v-5.269h12.634v-6.706h-12.634v-5.269h13.772v-6.707h-22.095zm56.32-19.161c-.659-7.605-6.227-11.916-13.952-11.916-8.263 0-14.789 5.509-14.789 15.748 0 10.194 6.347 15.748 14.789 15.748 8.982 0 13.533-6.227 13.952-11.437l-8.443-.06c-.419 2.62-2.275 4.252-5.329 4.252-4.057 0-6.407-2.874-6.407-8.503 0-5.329 2.275-8.503 6.467-8.503 3.203 0 5.03 1.886 5.269 4.671zm5.251 19.161h8.323v-7.904l2.755-3.593 6.886 11.497h9.94l-10.599-17.006 10.359-13.652h-9.7l-9.221 12.395h-.42v-12.395h-8.323z" fill="#fff"/><path d="m192.600032 354.508h1.673c-.024-1.471-1.233-2.487-3.071-2.487-1.81 0-3.136 1-3.128 2.499-.004 1.217.855 1.915 2.249 2.249l.899.226c.899.217 1.399.475 1.403 1.031-.004.605-.577 1.016-1.463 1.016-.907 0-1.56-.419-1.616-1.245h-1.689c.044 1.785 1.322 2.708 3.325 2.708 2.015 0 3.2-.963 3.204-2.474-.004-1.375-1.04-2.104-2.475-2.427l-.741-.177c-.718-.165-1.318-.431-1.306-1.024 0-.532.471-.923 1.326-.923.834 0 1.346.379 1.41 1.028zm3.043-.935h2.526v6.815h1.725v-6.815h2.527v-1.439h-6.778zm8.292 6.815h5.578v-1.439h-3.833v-1.97h3.531v-1.439h-3.531v-1.967h3.817v-1.439h-5.562zm8.769 0 .613-1.882h2.978l.613 1.882h1.87l-2.846-8.254h-2.249l-2.849 8.254zm1.056-3.244 1.016-3.124h.064l1.016 3.124zm6.408-5.01v8.254h1.693v-5.392h.069l2.136 5.352h1.152l2.136-5.332h.069v5.372h1.693v-8.254h-2.153l-2.273 5.546h-.096l-2.273-5.546z" fill="#fff"/><path d="m1197.72003 34.582 5.17 9.1476v5.0021h2.97v-5.0021l5.16-9.1476h-3.35l-3.23 6.0938h-.14l-3.22-6.0938z" fill="#fff"/><path d="m1163.09003 72.9455h-3.39l4.34 7.0748-4.42 7.0749h3.42l2.9-4.8294h.11l2.91 4.8294h3.44l-4.42-7.0749 4.32-7.0748h-3.38l-2.87 4.8225h-.11z" fill="#fff"/><path d="m1200.76003 125.459 1.06-3.227h5.1l1.05 3.227h3.21l-4.88-14.15h-3.86l-4.88 14.15zm1.82-5.562 1.74-5.355h.11l1.74 5.355z" fill="#fff"/><path d="m1237.53003 87.0952h6.05c3.18 0 4.87-1.6582 4.87-3.9105 0-2.0935-1.5-3.3578-3.11-3.4338v-.1382c1.47-.3316 2.56-1.3749 2.56-3.04 0-2.121-1.58-3.6272-4.7-3.6272h-5.67zm3-2.4458v-3.7585h2.5c1.44 0 2.33.829 2.33 1.9967 0 1.064-.72 1.7618-2.39 1.7618zm0-5.7829v-3.5028h2.27c1.33 0 2.08.684 2.08 1.7065 0 1.1192-.91 1.7963-2.14 1.7963z" fill="#fff"/><path d="m1126.09003 28.0233h12.66v1.5346h-12.66z" fill="#fff"/><path d="m1126.09003 34.7549h12.66v1.5345h-12.66z" fill="#fff"/><path d="m1126.09003 31.3891h12.66v1.5346h-12.66z" fill="#fff"/><circle cx="1072.98003" cy="355.461" fill="#fff" r="4.55566"/><circle cx="1059.19003" cy="355.461" fill="#fff" r="4.55566"/><circle cx="1045.40003" cy="355.461" fill="#fff" r="4.55566"/><path d="m135.951032 28.4429h7.67269v7.67269h-7.67269z" fill="#fff"/></g></g></svg>